<?xml version="1.0" encoding="UTF-8" standalone="no"?>
<!DOCTYPE svg PUBLIC "-//W3C//DTD SVG 1.1//EN" "http://www.w3.org/Graphics/SVG/1.1/DTD/svg11.dtd">
<svg version="1.1" xmlns="http://www.w3.org/2000/svg" xmlns:xlink="http://www.w3.org/1999/xlink" preserveAspectRatio="xMidYMid meet" viewBox="0 0 395 395" width="395" height="395"><defs><path d="M391 7.45C391 7.45 391 7.45 391 7.45C391 242.65 391 373.32 391 399.45C391 399.45 391 399.45 391 399.45C156.4 399.45 26.07 399.45 0 399.45C0 399.45 0 399.45 0 399.45C0 164.25 0 33.58 0 7.45C0 7.45 0 7.45 0 7.45C234.6 7.45 364.93 7.45 391 7.45Z" id="a2YKCLXUQ2"></path><path d="M181.8 372.59C181.8 382.95 190.08 391.39 200.26 391.39C210.43 391.39 218.71 382.95 218.71 372.59C218.71 362.23 210.43 353.8 200.26 353.8C190.08 353.8 181.8 362.23 181.8 372.59ZM194.1 372.59C194.1 369.13 196.87 366.33 200.26 366.33C203.65 366.33 206.41 369.13 206.41 372.59C206.41 376.05 203.65 378.86 200.26 378.86C196.87 378.86 194.1 376.05 194.1 372.59Z" id="abo2DLJQo"></path><path d="M354.08 372.59C354.08 382.95 362.36 391.39 372.54 391.39C382.72 391.39 391 382.95 391 372.59C391 362.23 382.72 353.8 372.54 353.8C362.36 353.8 354.08 362.23 354.08 372.59ZM366.39 372.59C366.39 369.13 369.15 366.33 372.54 366.33C375.93 366.33 378.69 369.13 378.69 372.59C378.69 376.05 375.93 378.86 372.54 378.86C369.15 378.86 366.39 376.05 366.39 372.59Z" id="b9f2T77PUy"></path><path d="M9.51 372.59C9.51 382.95 17.79 391.39 27.97 391.39C38.15 391.39 46.43 382.95 46.43 372.59C46.43 362.23 38.15 353.8 27.97 353.8C17.79 353.8 9.51 362.23 9.51 372.59ZM21.82 372.59C21.82 369.13 24.58 366.33 27.97 366.33C31.36 366.33 34.12 369.13 34.12 372.59C34.12 376.05 31.36 378.86 27.97 378.86C24.58 378.86 21.82 376.05 21.82 372.59Z" id="a8IBWcUTy"></path><path d="M9.51 309.95C9.51 320.31 17.79 328.74 27.97 328.74C38.15 328.74 46.43 320.31 46.43 309.95C46.43 299.59 38.15 291.15 27.97 291.15C17.79 291.15 9.51 299.59 9.51 309.95ZM21.82 309.95C21.82 306.49 24.58 303.68 27.97 303.68C31.36 303.68 34.12 306.49 34.12 309.95C34.12 313.4 31.36 316.21 27.97 316.21C24.58 316.21 21.82 313.4 21.82 309.95Z" id="cdEpk36Y"></path><path d="M206.41 284.89C206.41 284.89 206.41 284.89 206.41 284.89C206.41 318.72 206.41 337.51 206.41 341.27C206.41 341.27 206.41 341.27 206.41 341.27C199.02 341.27 194.92 341.27 194.1 341.27C194.1 341.27 194.1 341.27 194.1 341.27C194.1 307.44 194.1 288.65 194.1 284.89C194.1 284.89 194.1 284.89 194.1 284.89C201.49 284.89 205.59 284.89 206.41 284.89Z" id="f7WDiyTTx"></path><path d="M95.65 366.33C93.19 366.33 80.89 366.33 58.74 366.33L58.74 378.86C80.89 378.86 93.19 378.86 95.65 378.86C119.4 378.86 138.72 359.18 138.72 335.01C138.72 329.99 138.72 304.94 138.72 259.83L126.42 259.83L126.42 335.01C117.22 355.89 106.96 366.33 95.65 366.33Z" id="cd91ThMq"></path><path d="M83.35 303.68C81.71 303.68 73.5 303.68 58.74 303.68L58.74 316.21C73.5 316.21 81.71 316.21 83.35 316.21C93.52 316.21 101.81 307.78 101.81 297.42C101.81 291.15 101.81 259.83 101.81 203.45L89.5 203.45L89.5 297.42C87.66 301.59 85.61 303.68 83.35 303.68Z" id="a4fcax2qUK"></path><path d="M354.08 309.95C354.08 320.31 362.36 328.74 372.54 328.74C382.72 328.74 391 320.31 391 309.95C391 299.59 382.72 291.15 372.54 291.15C362.36 291.15 354.08 299.59 354.08 309.95ZM366.39 309.95C366.39 306.49 369.15 303.68 372.54 303.68C375.93 303.68 378.69 306.49 378.69 309.95C378.69 313.4 375.93 316.21 372.54 316.21C369.15 316.21 366.39 313.4 366.39 309.95Z" id="f13BTCtOsn"></path><path d="M274.09 259.83L261.79 259.83C261.79 304.94 261.79 329.99 261.79 335.01C261.79 359.18 281.11 378.86 304.86 378.86C307.32 378.86 319.62 378.86 341.78 378.86L341.78 366.33C319.62 366.33 307.32 366.33 304.86 366.33C287.89 366.33 274.09 352.28 274.09 335.01C274.09 324.98 274.09 299.92 274.09 259.83Z" id="cinkxvivf"></path><path d="M311.01 203.45L298.7 203.45C298.7 259.83 298.7 291.15 298.7 297.42C298.7 307.78 306.99 316.21 317.16 316.21C318.8 316.21 327.01 316.21 341.78 316.21L341.78 303.68C327.01 303.68 318.8 303.68 317.16 303.68C313.77 303.68 311.01 300.88 311.01 297.42C311.01 284.89 311.01 253.57 311.01 203.45Z" id="h1jXZ90P3c"></path><path d="M341.78 90.69C339.6 90.69 337.46 90.88 335.33 91.16C332.48 62.79 308.86 40.57 280.25 40.57C273.97 40.57 267.82 41.7 262.01 43.76C251.23 19.09 227.33 2.99 200.26 2.99C173.18 2.99 149.28 19.1 138.5 43.76C132.68 41.69 126.54 40.57 120.27 40.57C91.66 40.57 68.06 62.77 65.18 91.13C63.06 90.84 60.91 90.69 58.74 90.69C31.59 90.69 9.51 113.17 9.51 140.8C9.51 168.44 31.59 190.92 58.74 190.92C60.38 190.92 68.58 190.92 83.35 190.92L83.35 178.39C68.58 178.39 60.38 178.39 58.74 178.39C38.37 178.39 21.82 161.53 21.82 140.8C21.82 120.08 38.37 103.22 58.74 103.22C71.81 103.22 83.65 110.04 90.4 121.47C91.45 120.82 99.89 115.65 100.95 115.01C95.41 105.64 87.03 98.49 77.32 94.43C78.61 71.43 97.35 53.1 120.27 53.1C130.76 53.1 140.88 56.99 148.74 64.05C149.56 63.11 156.06 55.59 156.88 54.66C154.59 52.61 152.14 50.79 149.59 49.17C158.35 28.82 177.99 15.51 200.26 15.51C222.53 15.51 242.18 28.83 250.93 49.2C246.43 52.06 242.29 55.53 238.71 59.66C239.63 60.49 247.01 67.13 247.93 67.95C256.12 58.51 267.9 53.1 280.25 53.1C303.14 53.1 321.86 71.4 323.19 94.38C317.34 96.8 311.96 100.39 307.32 105.02C308.19 105.91 315.08 113.07 315.94 113.96C322.88 107.03 332.05 103.22 341.78 103.22C362.14 103.22 378.69 120.08 378.69 140.8C378.69 161.53 362.14 178.39 341.78 178.39C340.13 178.39 331.93 178.39 317.16 178.39L317.16 190.92C331.93 190.92 340.13 190.92 341.78 190.92C368.92 190.92 391 168.44 391 140.8C391 113.17 368.92 90.69 341.78 90.69Z" id="b79dbwRZXz"></path></defs><g><g><g><use xlink:href="#a2YKCLXUQ2" opacity="1" fill="#000000" fill-opacity="0"></use><g><use xlink:href="#a2YKCLXUQ2" opacity="1" fill-opacity="0" stroke="#000000" stroke-width="1" stroke-opacity="0"></use></g></g><g><use xlink:href="#abo2DLJQo" opacity="1" fill="#fafbfc" fill-opacity="1"></use><g><use xlink:href="#abo2DLJQo" opacity="1" fill-opacity="0" stroke="#000000" stroke-width="1" stroke-opacity="0"></use></g></g><g><use xlink:href="#b9f2T77PUy" opacity="1" fill="#fafbfc" fill-opacity="1"></use><g><use xlink:href="#b9f2T77PUy" opacity="1" fill-opacity="0" stroke="#000000" stroke-width="1" stroke-opacity="0"></use></g></g><g><use xlink:href="#a8IBWcUTy" opacity="1" fill="#fafbfc" fill-opacity="1"></use><g><use xlink:href="#a8IBWcUTy" opacity="1" fill-opacity="0" stroke="#000000" stroke-width="1" stroke-opacity="0"></use></g></g><g><use xlink:href="#cdEpk36Y" opacity="1" fill="#fafbfc" fill-opacity="1"></use><g><use xlink:href="#cdEpk36Y" opacity="1" fill-opacity="0" stroke="#000000" stroke-width="1" stroke-opacity="0"></use></g></g><g><use xlink:href="#f7WDiyTTx" opacity="1" fill="#fafbfc" fill-opacity="1"></use><g><use xlink:href="#f7WDiyTTx" opacity="1" fill-opacity="0" stroke="#000000" stroke-width="1" stroke-opacity="0"></use></g></g><g><use xlink:href="#cd91ThMq" opacity="1" fill="#fafbfc" fill-opacity="1"></use><g><use xlink:href="#cd91ThMq" opacity="1" fill-opacity="0" stroke="#000000" stroke-width="1" stroke-opacity="0"></use></g></g><g><use xlink:href="#a4fcax2qUK" opacity="1" fill="#fafbfc" fill-opacity="1"></use><g><use xlink:href="#a4fcax2qUK" opacity="1" fill-opacity="0" stroke="#000000" stroke-width="1" stroke-opacity="0"></use></g></g><g><use xlink:href="#f13BTCtOsn" opacity="1" fill="#fafbfc" fill-opacity="1"></use><g><use xlink:href="#f13BTCtOsn" opacity="1" fill-opacity="0" stroke="#000000" stroke-width="1" stroke-opacity="0"></use></g></g><g><use xlink:href="#cinkxvivf" opacity="1" fill="#fafbfc" fill-opacity="1"></use><g><use xlink:href="#cinkxvivf" opacity="1" fill-opacity="0" stroke="#000000" stroke-width="1" stroke-opacity="0"></use></g></g><g><use xlink:href="#h1jXZ90P3c" opacity="1" fill="#fafbfc" fill-opacity="1"></use><g><use xlink:href="#h1jXZ90P3c" opacity="1" fill-opacity="0" stroke="#000000" stroke-width="1" stroke-opacity="0"></use></g></g><g><use xlink:href="#b79dbwRZXz" opacity="1" fill="#fafbfc" fill-opacity="1"></use><g><use xlink:href="#b79dbwRZXz" opacity="1" fill-opacity="0" stroke="#000000" stroke-width="1" stroke-opacity="0"></use></g></g></g></g></svg>