<svg width="580" height="400" xmlns="http://www.w3.org/2000/svg">
 <!-- Created with Method Draw - http://github.com/duopixel/Method-Draw/ -->

 <g>
  <title>background</title>
  <rect fill="none" id="canvas_background" height="402" width="582" y="-1" x="-1"/>
  <g display="none" overflow="visible" y="0" x="0" height="100%" width="100%" id="canvasGrid">
   <rect fill="url(#gridpattern)" stroke-width="0" y="0" x="0" height="100%" width="100%"/>
  </g>
 </g>
 <g>
  <title>Layer 1</title>
  <g transform="matrix(0.7652471691976365,0,0,0.774986220449681,3.6952359900375313,9.724568367004395) " id="svg_5">
   <g id="svg_6">
    <g id="svg_7">
     <path fill="#fafbfc" id="svg_8" d="m379.257743,136c-39.696,0 -72,32.296 -72,72s32.304,72 72,72s72,-32.296 72,-72s-32.304,-72 -72,-72zm0,80c-4.408,0 -8,-3.584 -8,-8s3.592,-8 8,-8s8,3.584 8,8s-3.592,8 -8,8zm8,47.36l0,-32.832c9.288,-3.312 16,-12.112 16,-22.528c0,-13.232 -10.768,-24 -24,-24s-24,10.768 -24,24c0,10.416 6.712,19.216 16,22.528l0,32.832c-27.096,-3.904 -48,-27.208 -48,-55.36c0,-30.872 25.12,-56 56,-56s56,25.128 56,56c0,28.152 -20.904,51.456 -48,55.36z"/>
     <path fill="#fafbfc" id="svg_9" d="m474.217743,250.24c0.744,-1.656 1.44,-3.312 2.08,-4.976l38.96,-6.48l0,-61.56l-38.96,-6.488c-1.216,-3.144 -2.616,-6.288 -4.184,-9.4l-14.288,7.2c1.984,3.928 3.648,7.912 4.936,11.824l1.512,4.584l34.984,5.84l0,34.44l-34.984,5.832l-1.512,4.584c-1.288,3.904 -2.952,7.888 -4.936,11.824l-2.176,4.32l20.64,28.888l-24.352,24.36l-28.896,-20.64l-4.312,2.168c-3.944,1.984 -7.928,3.648 -11.832,4.936l-4.584,1.512l-5.832,34.992l-34.448,0l-5.832,-34.984l-4.584,-1.512c-3.912,-1.296 -7.896,-2.952 -11.824,-4.936l-4.32,-2.168l-28.896,20.64l-29.152,-29.152l-11.312,11.312l38.744,38.72l32.16,-22.968c1.656,0.744 3.312,1.44 4.968,2.08l6.496,38.968l61.552,0l6.496,-38.968c1.656,-0.64 3.32,-1.336 4.976,-2.08l32.16,22.968l43.528,-43.512l-22.976,-32.168z"/>
     <path fill="#fafbfc" id="svg_10" d="m243.257743,177.216l0,61.56l38.96,6.488c1.216,3.144 2.616,6.288 4.184,9.4l14.288,-7.2c-1.984,-3.928 -3.648,-7.912 -4.936,-11.824l-1.512,-4.584l-34.984,-5.84l0,-34.44l34.984,-5.832l1.512,-4.584c1.288,-3.904 2.952,-7.888 4.936,-11.824l2.176,-4.32l-20.64,-28.888l24.352,-24.36l28.904,20.64l4.32,-2.176c3.88,-1.96 7.856,-3.616 11.816,-4.928l4.584,-1.512l5.832,-34.992l34.448,0l5.832,34.984l4.584,1.512c3.952,1.304 7.928,2.96 11.824,4.928l4.32,2.176l28.896,-20.64l29.152,29.152l11.312,-11.312l-38.744,-38.736l-32.16,22.976c-1.656,-0.744 -3.312,-1.432 -4.976,-2.08l-6.488,-38.96l-61.552,0l-6.496,38.96c-1.664,0.648 -3.328,1.344 -4.976,2.08l-32.16,-22.976l-43.528,43.528l22.976,32.168c-0.744,1.656 -1.44,3.312 -2.08,4.976l-38.96,6.48z"/>
     <rect fill="#fafbfc" id="svg_11" height="16" width="16" y="104" x="371.257743"/>
     <rect fill="#fafbfc" id="svg_12" height="16" width="16" transform="matrix(0.7071,-0.7071,0.7071,0.7071,-46.3224,168.3998) " y="224.93013" x="264.92913"/>
     <rect fill="#fafbfc" id="svg_13" height="16" width="16" y="200" x="275.257743"/>
     <rect fill="#fafbfc" id="svg_14" height="16" width="16" transform="matrix(-0.7071,0.7071,-0.7071,-0.7071,502.5399,343.5849) " y="175.05787" x="79.29687"/>
     <rect fill="#fafbfc" id="svg_15" height="16" width="16" y="296" x="371.257743"/>
     <rect fill="#fafbfc" id="svg_16" height="16" width="16" transform="matrix(-0.7071,0.7071,-0.7071,-0.7071,734.3062,247.5923) " y="175.06187" x="215.06087"/>
     <rect fill="#fafbfc" id="svg_17" height="16" width="16" y="200" x="467.257743"/>
     <rect fill="#fafbfc" id="svg_18" height="16" width="16" transform="matrix(0.7071,-0.7071,0.7071,0.7071,-6.561,264.4006) " y="224.93413" x="400.69313"/>
     <path fill="#fafbfc" id="svg_19" d="m379.257743,448c-13.232,0 -24,10.768 -24,24s10.768,24 24,24s24,-10.768 24,-24s-10.768,-24 -24,-24zm0,32c-4.408,0 -8,-3.584 -8,-8c0,-4.416 3.592,-8 8,-8s8,3.584 8,8c0,4.416 -3.592,8 -8,8z"/>
     <path fill="#fafbfc" id="svg_20" d="m603.257743,448c-13.232,0 -24,10.768 -24,24s10.768,24 24,24s24,-10.768 24,-24s-10.768,-24 -24,-24zm0,32c-4.408,0 -8,-3.584 -8,-8c0,-4.416 3.592,-8 8,-8c4.408,0 8,3.584 8,8c0,4.416 -3.592,8 -8,8z"/>
     <path fill="#fafbfc" id="svg_21" d="m155.257743,448c-13.232,0 -24,10.768 -24,24s10.768,24 24,24s24,-10.768 24,-24s-10.768,-24 -24,-24zm0,32c-4.408,0 -8,-3.584 -8,-8c0,-4.416 3.592,-8 8,-8s8,3.584 8,8c0,4.416 -3.592,8 -8,8z"/>
     <path fill="#fafbfc" id="svg_22" d="m155.257743,368c-13.232,0 -24,10.768 -24,24s10.768,24 24,24s24,-10.768 24,-24s-10.768,-24 -24,-24zm0,32c-4.408,0 -8,-3.584 -8,-8c0,-4.416 3.592,-8 8,-8s8,3.584 8,8c0,4.416 -3.592,8 -8,8z"/>
     <rect fill="#fafbfc" id="svg_23" height="72" width="16" y="360" x="371.257743"/>
     <path fill="#fafbfc" id="svg_24" d="m283.257743,424c0,22.056 -17.944,40 -40,40l-48,0l0,16l48,0c30.88,0 56,-25.128 56,-56l0,-96l-16,0l0,96z"/>
     <path fill="#fafbfc" id="svg_25" d="m235.257743,376c0,4.416 -3.592,8 -8,8l-32,0l0,16l32,0c13.232,0 24,-10.768 24,-24l0,-120l-16,0l0,120z"/>
     <path fill="#fafbfc" id="svg_26" d="m603.257743,368c-13.232,0 -24,10.768 -24,24s10.768,24 24,24s24,-10.768 24,-24s-10.768,-24 -24,-24zm0,32c-4.408,0 -8,-3.584 -8,-8c0,-4.416 3.592,-8 8,-8c4.408,0 8,3.584 8,8c0,4.416 -3.592,8 -8,8z"/>
     <path fill="#fafbfc" id="svg_27" d="m475.257743,424l0,-96l-16,0l0,96c0,30.872 25.12,56 56,56l48,0l0,-16l-48,0c-22.056,0 -40,-17.944 -40,-40z"/>
     <path fill="#fafbfc" id="svg_28" d="m523.257743,376l0,-120l-16,0l0,120c0,13.232 10.768,24 24,24l32,0l0,-16l-32,0c-4.408,0 -8,-3.584 -8,-8z"/>
     <path fill="#fafbfc" id="svg_29" d="m627.257743,176c0,-35.288 -28.712,-64 -64,-64c-2.832,0 -5.616,0.248 -8.376,0.608c-3.712,-36.24 -34.416,-64.608 -71.624,-64.608c-8.16,0 -16.152,1.44 -23.704,4.072c-14.016,-31.504 -45.096,-52.072 -80.296,-52.072s-66.272,20.576 -80.296,52.072c-7.56,-2.64 -15.552,-4.072 -23.704,-4.072c-37.192,0 -67.88,28.344 -71.616,64.568c-2.76,-0.376 -5.56,-0.568 -8.384,-0.568c-35.288,0 -64,28.712 -64,64c0,35.288 28.712,64 64,64l32,0l0,-16l-32,0c-26.472,0 -48,-21.528 -48,-48s21.528,-48 48,-48c17,0 32.392,8.712 41.168,23.304l13.712,-8.248c-7.192,-11.968 -18.096,-21.096 -30.72,-26.272c1.68,-29.376 26.048,-52.784 55.84,-52.784c13.648,0 26.8,4.968 37.024,13.984l10.576,-12c-2.968,-2.616 -6.152,-4.936 -9.472,-7.008c11.392,-25.984 36.928,-42.976 65.872,-42.976c28.96,0 54.504,17.008 65.88,43.016c-5.848,3.648 -11.232,8.088 -15.888,13.36l11.992,10.592c10.648,-12.056 25.96,-18.968 42.016,-18.968c29.768,0 54.112,23.368 55.832,52.712c-7.6,3.096 -14.6,7.672 -20.624,13.584l11.2,11.424c9.024,-8.856 20.952,-13.72 33.592,-13.72c26.472,0 48,21.528 48,48s-21.528,48 -48,48l-32,0l0,16l32,0c35.288,0 64,-28.712 64,-64z"/>
    </g>
   </g>
  </g>
  <g transform="matrix(0.07226269570289023,0,0,0.07226269570289023,0,0) " id="svg_30"/>
  <g transform="matrix(0.07226269570289023,0,0,0.07226269570289023,0,0) " id="svg_31"/>
  <g transform="matrix(0.07226269570289023,0,0,0.07226269570289023,0,0) " id="svg_32"/>
  <g transform="matrix(0.07226269570289023,0,0,0.07226269570289023,0,0) " id="svg_33"/>
  <g transform="matrix(0.07226269570289023,0,0,0.07226269570289023,0,0) " id="svg_34"/>
  <g transform="matrix(0.07226269570289023,0,0,0.07226269570289023,0,0) " id="svg_35"/>
  <g transform="matrix(0.07226269570289023,0,0,0.07226269570289023,0,0) " id="svg_36"/>
  <g transform="matrix(0.07226269570289023,0,0,0.07226269570289023,0,0) " id="svg_37"/>
  <g transform="matrix(0.07226269570289023,0,0,0.07226269570289023,0,0) " id="svg_38"/>
  <g transform="matrix(0.07226269570289023,0,0,0.07226269570289023,0,0) " id="svg_39"/>
  <g transform="matrix(0.07226269570289023,0,0,0.07226269570289023,0,0) " id="svg_40"/>
  <g transform="matrix(0.07226269570289023,0,0,0.07226269570289023,0,0) " id="svg_41"/>
  <g transform="matrix(0.07226269570289023,0,0,0.07226269570289023,0,0) " id="svg_42"/>
  <g transform="matrix(0.07226269570289023,0,0,0.07226269570289023,0,0) " id="svg_43"/>
  <g transform="matrix(0.07226269570289023,0,0,0.07226269570289023,0,0) " id="svg_44"/>
  <g id="svg_45"/>
 </g>
</svg>