<?xml version="1.0" encoding="UTF-8" standalone="no"?>
<!DOCTYPE svg PUBLIC "-//W3C//DTD SVG 1.1//EN" "http://www.w3.org/Graphics/SVG/1.1/DTD/svg11.dtd">
<svg version="1.1" xmlns="http://www.w3.org/2000/svg" xmlns:xlink="http://www.w3.org/1999/xlink" preserveAspectRatio="xMidYMid meet" viewBox="0 0 220 220" width="220" height="220"><defs><path d="M220 1C220 1 220 1 220 1C220 131.8 220 204.47 220 219C220 219 220 219 220 219C90.43 219 18.45 219 4.05 219C4.05 219 4.05 219 4.05 219C4.05 88.2 4.05 15.53 4.05 1C4.05 1 4.05 1 4.05 1C133.62 1 205.6 1 220 1Z" id="b4M4cdUc"></path><path d="M56.28 109.5C56.28 140.59 81.12 165.88 111.65 165.88C142.18 165.88 167.03 140.59 167.03 109.5C167.03 78.41 142.18 53.12 111.65 53.12C81.12 53.12 56.28 78.41 56.28 109.5ZM105.5 109.5C105.5 106.05 108.26 103.24 111.65 103.24C115.04 103.24 117.81 106.05 117.81 109.5C117.81 112.96 115.04 115.77 111.65 115.77C108.26 115.77 105.5 112.96 105.5 109.5ZM117.81 127.14C124.95 124.55 130.11 117.66 130.11 109.5C130.11 99.14 121.83 90.71 111.65 90.71C101.48 90.71 93.19 99.14 93.19 109.5C93.19 117.66 98.36 124.55 105.5 127.14C105.5 129.71 105.5 150.28 105.5 152.85C84.66 149.8 68.58 131.55 68.58 109.5C68.58 85.33 87.9 65.65 111.65 65.65C135.4 65.65 154.72 85.33 154.72 109.5C154.72 131.55 138.65 149.8 117.81 152.85C117.81 147.71 117.81 129.71 117.81 127.14Z" id="a3sAqexdM7"></path><path d="M186.29 138.68C188.29 138.34 198.28 136.65 216.25 133.61L216.25 85.4C198.28 82.36 188.29 80.66 186.29 80.32C185.35 77.86 184.28 75.4 183.07 72.96C181.97 73.53 173.18 78.04 172.08 78.6C173.61 81.68 174.89 84.8 175.88 87.86C175.96 88.1 176.34 89.3 177.04 91.45L203.95 96.02L203.95 122.99L177.04 127.56C176.34 129.71 175.96 130.91 175.88 131.15C174.89 134.2 173.61 137.32 172.08 140.41C171.97 140.63 171.41 141.76 170.41 143.79L186.28 166.41L167.55 185.49L145.33 169.32C143.34 170.34 142.23 170.91 142.01 171.02C138.98 172.57 135.91 173.88 132.91 174.89C132.68 174.96 131.5 175.36 129.39 176.07L124.9 203.47L98.41 203.47L93.92 176.08C91.8 175.37 90.63 174.97 90.39 174.89C87.39 173.88 84.32 172.58 81.3 171.03C81.08 170.91 79.97 170.35 77.98 169.33L55.75 185.49L33.33 162.66L24.63 171.52L54.43 201.84C69.27 191.05 77.52 185.06 79.16 183.86C80.44 184.44 81.71 184.98 82.99 185.49C83.32 187.52 84.98 197.69 87.98 216L135.32 216C138.32 197.69 139.99 187.52 140.32 185.49C141.59 184.98 142.87 184.44 144.15 183.86C145.8 185.06 154.04 191.05 168.88 201.84L202.36 167.77L184.69 142.58C185.43 140.85 185.96 139.55 186.29 138.68Z" id="c24o0e7S6n"></path><path d="M7.05 133.6C25.03 136.65 35.02 138.34 37.02 138.68C37.95 141.15 39.03 143.61 40.23 146.04C41.33 145.48 50.13 140.97 51.22 140.41C49.7 137.33 48.42 134.21 47.43 131.15C47.35 130.91 46.96 129.71 46.26 127.56L19.36 122.98L19.36 96.02L46.26 91.45C46.96 89.3 47.35 88.1 47.43 87.86C48.42 84.8 49.7 81.68 51.22 78.6C51.34 78.37 51.89 77.25 52.9 75.22L37.02 52.6L55.75 33.52L77.98 49.68C79.98 48.66 81.08 48.09 81.31 47.98C84.29 46.44 87.35 45.15 90.39 44.12C90.63 44.04 91.8 43.65 93.92 42.94L98.41 15.54L124.9 15.54L129.39 42.93C131.5 43.64 132.68 44.04 132.91 44.11C135.95 45.14 139.01 46.43 142.01 47.97C142.23 48.09 143.34 48.65 145.33 49.68L167.55 33.51L189.98 56.34L198.68 47.48L168.88 17.15C154.04 27.95 145.79 33.94 144.14 35.14C142.87 34.56 141.59 34.02 140.31 33.51C139.98 31.48 138.32 21.31 135.32 3.01L87.98 3.01C84.98 21.31 83.32 31.48 82.99 33.51C81.71 34.02 80.43 34.57 79.16 35.14C77.51 33.94 69.26 27.95 54.42 17.15L20.94 51.24C31.55 66.35 37.44 74.75 38.62 76.43C38.04 77.72 37.51 79.02 37.02 80.32C35.02 80.66 25.03 82.35 7.05 85.4L7.05 133.6Z" id="a3cmO2u1db"></path><path d="M117.81 28.06C117.81 28.06 117.81 28.06 117.81 28.06C117.81 35.58 117.81 39.76 117.81 40.59C117.81 40.59 117.81 40.59 117.81 40.59C110.42 40.59 106.32 40.59 105.5 40.59C105.5 40.59 105.5 40.59 105.5 40.59C105.5 33.08 105.5 28.9 105.5 28.06C105.5 28.06 105.5 28.06 105.5 28.06C112.88 28.06 116.99 28.06 117.81 28.06Z" id="c3rTOqIaAr"></path><path d="M59.44 47.49C59.44 47.49 59.44 47.49 59.44 47.49C64.66 52.8 67.56 55.76 68.14 56.35C68.14 56.35 68.14 56.35 68.14 56.35C62.92 61.66 60.02 64.61 59.44 65.21C59.44 65.21 59.44 65.21 59.44 65.21C54.22 59.89 51.32 56.94 50.74 56.35C50.74 56.35 50.74 56.35 50.74 56.35C55.96 51.03 58.86 48.08 59.44 47.49Z" id="a2e9WpDY3r"></path><path d="M43.97 103.24C43.97 103.24 43.97 103.24 43.97 103.24C43.97 110.76 43.97 114.93 43.97 115.77C43.97 115.77 43.97 115.77 43.97 115.77C36.59 115.77 32.48 115.77 31.66 115.77C31.66 115.77 31.66 115.77 31.66 115.77C31.66 108.25 31.66 104.07 31.66 103.24C31.66 103.24 31.66 103.24 31.66 103.24C39.05 103.24 43.15 103.24 43.97 103.24Z" id="c4PG5AXk4G"></path><path d="M59.44 171.51C59.44 171.51 59.44 171.51 59.44 171.51C54.22 166.2 51.32 163.24 50.74 162.65C50.74 162.65 50.74 162.65 50.74 162.65C55.96 157.34 58.86 154.38 59.44 153.79C59.44 153.79 59.44 153.79 59.44 153.79C64.66 159.11 67.56 162.06 68.14 162.65C68.14 162.65 68.14 162.65 68.14 162.65C62.92 167.97 60.02 170.92 59.44 171.51Z" id="b179Ovgcng"></path><path d="M117.81 178.41C117.81 178.41 117.81 178.41 117.81 178.41C117.81 185.93 117.81 190.11 117.81 190.94C117.81 190.94 117.81 190.94 117.81 190.94C110.42 190.94 106.32 190.94 105.5 190.94C105.5 190.94 105.5 190.94 105.5 190.94C105.5 183.42 105.5 179.25 105.5 178.41C105.5 178.41 105.5 178.41 105.5 178.41C112.88 178.41 116.99 178.41 117.81 178.41Z" id="b2MmnDXz4K"></path><path d="M163.86 171.51C163.86 171.51 163.86 171.51 163.86 171.51C158.64 166.2 155.74 163.24 155.16 162.65C155.16 162.65 155.16 162.65 155.16 162.65C160.38 157.34 163.28 154.39 163.86 153.79C163.86 153.79 163.86 153.79 163.86 153.79C169.08 159.11 171.98 162.06 172.56 162.65C172.56 162.65 172.56 162.65 172.56 162.65C167.34 167.97 164.44 170.92 163.86 171.51Z" id="j13qfWKqeK"></path><path d="M191.64 103.24C191.64 103.24 191.64 103.24 191.64 103.24C191.64 110.76 191.64 114.93 191.64 115.77C191.64 115.77 191.64 115.77 191.64 115.77C184.26 115.77 180.16 115.77 179.34 115.77C179.34 115.77 179.34 115.77 179.34 115.77C179.34 108.25 179.34 104.07 179.34 103.24C179.34 103.24 179.34 103.24 179.34 103.24C186.72 103.24 190.82 103.24 191.64 103.24Z" id="b1O0yR6LQH"></path><path d="M163.86 47.49C163.86 47.49 163.86 47.49 163.86 47.49C169.08 52.81 171.98 55.76 172.56 56.35C172.56 56.35 172.56 56.35 172.56 56.35C167.34 61.67 164.44 64.62 163.86 65.21C163.86 65.21 163.86 65.21 163.86 65.21C158.64 59.89 155.74 56.94 155.16 56.35C155.16 56.35 155.16 56.35 155.16 56.35C160.38 51.03 163.28 48.08 163.86 47.49Z" id="ibfu1bGcb"></path></defs><g><g><g><use xlink:href="#b4M4cdUc" opacity="1" fill="#000000" fill-opacity="0"></use><g><use xlink:href="#b4M4cdUc" opacity="1" fill-opacity="0" stroke="#000000" stroke-width="1" stroke-opacity="0"></use></g></g><g><use xlink:href="#a3sAqexdM7" opacity="1" fill="#fafbfc" fill-opacity="1"></use><g><use xlink:href="#a3sAqexdM7" opacity="1" fill-opacity="0" stroke="#000000" stroke-width="1" stroke-opacity="0"></use></g></g><g><use xlink:href="#c24o0e7S6n" opacity="1" fill="#fafbfc" fill-opacity="1"></use><g><use xlink:href="#c24o0e7S6n" opacity="1" fill-opacity="0" stroke="#000000" stroke-width="1" stroke-opacity="0"></use></g></g><g><use xlink:href="#a3cmO2u1db" opacity="1" fill="#fafbfc" fill-opacity="1"></use><g><use xlink:href="#a3cmO2u1db" opacity="1" fill-opacity="0" stroke="#000000" stroke-width="1" stroke-opacity="0"></use></g></g><g><use xlink:href="#c3rTOqIaAr" opacity="1" fill="#fafbfc" fill-opacity="1"></use><g><use xlink:href="#c3rTOqIaAr" opacity="1" fill-opacity="0" stroke="#000000" stroke-width="1" stroke-opacity="0"></use></g></g><g><use xlink:href="#a2e9WpDY3r" opacity="1" fill="#fafbfc" fill-opacity="1"></use><g><use xlink:href="#a2e9WpDY3r" opacity="1" fill-opacity="0" stroke="#000000" stroke-width="1" stroke-opacity="0"></use></g></g><g><use xlink:href="#c4PG5AXk4G" opacity="1" fill="#fafbfc" fill-opacity="1"></use><g><use xlink:href="#c4PG5AXk4G" opacity="1" fill-opacity="0" stroke="#000000" stroke-width="1" stroke-opacity="0"></use></g></g><g><use xlink:href="#b179Ovgcng" opacity="1" fill="#fafbfc" fill-opacity="1"></use><g><use xlink:href="#b179Ovgcng" opacity="1" fill-opacity="0" stroke="#000000" stroke-width="1" stroke-opacity="0"></use></g></g><g><use xlink:href="#b2MmnDXz4K" opacity="1" fill="#fafbfc" fill-opacity="1"></use><g><use xlink:href="#b2MmnDXz4K" opacity="1" fill-opacity="0" stroke="#000000" stroke-width="1" stroke-opacity="0"></use></g></g><g><use xlink:href="#j13qfWKqeK" opacity="1" fill="#fafbfc" fill-opacity="1"></use><g><use xlink:href="#j13qfWKqeK" opacity="1" fill-opacity="0" stroke="#000000" stroke-width="1" stroke-opacity="0"></use></g></g><g><use xlink:href="#b1O0yR6LQH" opacity="1" fill="#fafbfc" fill-opacity="1"></use><g><use xlink:href="#b1O0yR6LQH" opacity="1" fill-opacity="0" stroke="#000000" stroke-width="1" stroke-opacity="0"></use></g></g><g><use xlink:href="#ibfu1bGcb" opacity="1" fill="#fafbfc" fill-opacity="1"></use><g><use xlink:href="#ibfu1bGcb" opacity="1" fill-opacity="0" stroke="#000000" stroke-width="1" stroke-opacity="0"></use></g></g></g></g></svg>